<svg xmlns="http://www.w3.org/2000/svg" viewBox="0 0 103273 1000" width="103273" height="1000"><path d="M0 0h1693s0 6.56-197 10.44c-213.61 4.22-599.6 1.15-838 3.43-171 1.63-189 3.66-291 6.07C260.81 22.46 0 23 0 23zM1693 0h1693s0 6.727-197 10.705c-213.61 4.327-599.6 1.18-838 3.517-171 1.672-189 3.753-291 6.225-106.19 2.583-367 3.137-367 3.137zM3386 0h1693s0 7.249-197 11.538c-213.61 4.663-599.6 1.271-838 3.79-171 1.802-189 4.045-291 6.709-106.19 2.784-367 3.382-367 3.382zM5079 0h1693s0 8.167-197 12.999c-213.61 5.253-599.6 1.432-838 4.27-171 2.031-189 4.557-291 7.559-106.19 3.136-367 3.809-367 3.809zM6772 0h1693s0 9.523-197 15.16c-213.61 6.125-599.6 1.67-838 4.979-171 2.368-189 5.313-291 8.814-106.19 3.657-367 4.443-367 4.443zM8465 0h1693s0 11.368-197 18.1c-213.61 7.311-599.6 1.993-838 5.944-171 2.828-189 6.342-291 10.524-106.19 4.364-367 5.304-367 5.304zM10158 0h1693s0 13.761-197 21.912c-213.61 8.85-599.6 2.413-838 7.195-171 3.424-189 7.677-291 12.741-106.19 5.281-367 6.42-367 6.42zM11851 0h1693s0 16.768-197 26.701c-213.61 10.784-599.6 2.941-838 8.767-171 4.173-189 9.355-291 15.526-106.19 6.435-367 7.824-367 7.824zM13544 0h1693s0 20.463-197 32.587c-213.61 13.159-599.6 3.589-838 10.699-171 5.093-189 11.416-291 18.948-106.19 7.853-367 9.548-367 9.548zM15237 0h1693s0 24.929-197 39.702c-213.61 16.031-599.6 4.373-838 13.034-171 6.206-189 13.908-291 23.086-106.19 9.565-367 11.632-367 11.632zM16930 0h1693s0 30.257-197 48.189c-213.61 19.457-599.6 5.308-838 15.819-171 7.534-189 16.88-291 28.021-106.19 11.609-367 14.119-367 14.119zM18623 0h1693s0 36.537-197 58.194c-213.61 23.495-599.6 6.41-838 19.103-171 9.098-189 20.384-291 33.839-106.19 14.017-367 17.05-367 17.05zM20316 0h1693s0 43.856-197 69.853c-213.61 28.201-599.6 7.694-838 22.929-171 10.922-189 24.467-291 40.619-106.19 16.824-367 20.465-367 20.465zM22009 0h1693s0 52.277-197 83.268c-213.61 33.615-599.6 9.17-838 27.331-171 13.02-189 29.165-291 48.419-106.19 20.054-367 24.395-367 24.395zM23702 0h1693s0 61.82-197 98.47c-213.61 39.75-599.6 10.845-838 32.32-171 15.397-189 34.489-291 57.259-106.19 23.714-367 28.848-367 28.848zM25395 0h1693s0 72.435-197 115.381c-213.61 46.576-599.6 12.707-838 37.87-171 18.042-189 40.411-291 67.093-106.19 27.785-367 33.802-367 33.802zM27088 0h1693s0 83.981-197 133.773c-213.61 54-599.6 14.733-838 43.907-171 20.918-189 46.853-291 77.788-106.19 32.213-367 39.19-367 39.19zM28781 0h1693s0 96.217-197 153.265c-213.61 61.868-599.6 16.88-838 50.304-171 23.967-189 53.679-291 89.123-106.19 36.906-367 44.9-367 44.9zM30474 0h1693s0 108.83-197 173.358c-213.61 69.977-599.6 19.092-838 56.897-171 27.109-189 60.716-291 100.807-106.19 41.743-367 50.786-367 50.786zM32167 0h1693s0 121.484-197 193.516c-213.61 78.113-599.6 21.312-838 63.512-171 30.262-189 67.776-291 112.529-106.19 46.596-367 56.691-367 56.691zM33860 0h1693s0 133.877-197 213.259c-213.61 86.081-599.6 23.486-838 69.992-171 33.349-189 74.689-291 124.009-106.19 51.35-367 62.475-367 62.475zM35553 0h1693s0 145.78-197 232.22c-213.61 93.735-599.6 25.575-838 76.215-171 36.315-189 81.33-291 135.035-106.19 55.915-367 68.03-367 68.03zM37246 0h1693s0 157.044-197 250.164c-213.61 100.978-599.6 27.552-838 82.104-171 39.122-189 87.615-291 145.47-106.19 60.235-367 73.287-367 73.287zM38939 0h1693s0 167.595-197 266.971c-213.61 107.762-599.6 29.403-838 87.62-171 41.75-189 93.501-291 155.243-106.19 64.282-367 78.211-367 78.211zM40632 0h1693s0 177.409-197 282.606c-213.61 114.072-599.6 31.124-838 92.751-171 44.195-189 98.976-291 164.335-106.19 68.045-367 82.79-367 82.79zM42325 0h1693s0 186.501-197 297.089c-213.61 119.917-599.6 32.719-838 97.504-171 46.46-189 104.048-291 172.756-106.19 71.533-367 87.033-367 87.033zM44018 0h1693s0 194.902-197 310.473c-213.61 125.319-599.6 34.193-838 101.896-171 48.553-189 108.735-291 180.539-106.19 74.755-367 90.954-367 90.954zM45711 0h1693s0 202.657-197 322.826c-213.61 130.306-599.6 35.554-838 105.951-171 50.485-189 113.061-291 187.723-106.19 77.729-367 94.573-367 94.573zM47404 0h1693s0 209.812-197 334.224c-213.61 134.906-599.6 36.809-838 109.692-171 52.268-189 117.053-291 194.35-106.19 80.473-367 97.912-367 97.912zM49097 0h1693s0 216.414-197 344.741c-213.61 139.151-599.6 37.967-838 113.143-171 53.913-189 120.736-291 200.466-106.19 83.005-367 100.993-367 100.993zM50790 0h1693s0 222.507-197 354.448c-213.61 143.069-599.6 39.036-838 116.328-171 55.431-189 124.136-291 206.111-106.19 85.342-367 103.836-367 103.836zM52483 0h1693s0 228.133-197 363.411c-213.61 146.686-599.6 40.023-838 119.269-171 56.833-189 127.275-291 211.323-106.19 87.5-367 106.462-367 106.462zM54176 0h1693s0 233.33-197 371.689c-213.61 150.028-599.6 40.935-838 121.987-171 58.127-189 130.174-291 216.137-106.19 89.493-367 108.887-367 108.887zM55869 0h1693s0 238.133-197 379.339c-213.61 153.116-599.6 41.778-838 124.498-171 59.323-189 132.853-291 220.584-106.19 91.335-367 111.129-367 111.129zM57562 0h1693s0 242.571-197 386.409c-213.61 155.97-599.6 42.557-838 126.818-171 60.43-189 135.329-291 224.696-106.19 93.037-367 113.2-367 113.2zM59255 0h1693s0 246.673-197 392.945c-213.61 158.606-599.6 43.275-838 128.962-171 61.451-189 137.618-291 228.496-106.19 94.611-367 115.114-367 115.114zM60948 0h1693s0 250.465-197 398.984c-213.61 161.045-599.6 43.941-838 130.945-171 62.396-189 139.733-291 232.008-106.19 96.065-367 116.884-367 116.884zM62641 0h1693s0 253.968-197 404.565c-213.61 163.297-599.6 44.556-838 132.776-171 63.269-189 141.687-291 235.254-106.19 97.408-367 118.518-367 118.518zM64334 0h1693s0 257.203-197 409.719c-213.61 165.377-599.6 45.123-838 134.467-171 64.075-189 143.492-291 238.25-106.19 98.649-367 120.028-367 120.028zM66027 0h1693s0 260.188-197 414.475c-213.61 167.296-599.6 45.647-838 136.028-171 64.818-189 145.158-291 241.016-106.19 99.794-367 121.421-367 121.421zM67720 0h1693s0 262.941-197 418.859c-213.61 169.067-599.6 46.13-838 137.468-171 65.504-189 146.693-291 243.565-106.19 100.85-367 122.706-367 122.706zM69413 0h1693s0 265.475-197 422.897c-213.61 170.696-599.6 46.574-838 138.792-171 66.136-189 148.107-291 245.913-106.19 101.822-367 123.889-367 123.889zM71106 0h1693s0 267.805-197 426.608c-213.61 172.194-599.6 46.983-838 140.011-171 66.716-189 149.407-291 248.071-106.19 102.715-367 124.976-367 124.976zM72799 0h1693s0 269.943-197 430.014c-213.61 173.568-599.6 47.358-838 141.128-171 67.248-189 150.599-291 250.052-106.19 103.535-367 125.973-367 125.973zM74492 0h1693s0 271.9-197 433.131c-213.61 174.827-599.6 47.702-838 142.151-171 67.737-189 151.692-291 251.865-106.19 104.286-367 126.887-367 126.887zM76185 0h1693s0 273.686-197 435.977c-213.61 175.976-599.6 48.015-838 143.085-171 68.182-189 152.688-291 253.52-106.19 104.971-367 127.72-367 127.72zM77878 0h1693s0 275.312-197 438.567c-213.61 177.02-599.6 48.3-838 143.934-171 68.587-189 153.595-291 255.026-106.19 105.594-367 128.479-367 128.479zM79571 0h1693s0 276.785-197 440.913c-213.61 177.968-599.6 48.559-838 144.705-171 68.953-189 154.417-291 256.39-106.19 106.159-367 129.166-367 129.166zM81264 0h1693s0 278.113-197 443.03c-213.61 178.822-599.6 48.791-838 145.399-171 69.285-189 155.158-291 257.621-106.19 106.669-367 129.786-367 129.786zM82957 0h1693s0 279.305-197 444.928c-213.61 179.588-599.6 49.001-838 146.023-171 69.581-189 155.822-291 258.724-106.19 107.126-367 130.342-367 130.342zM84650 0h1693s0 280.366-197 446.619c-213.61 180.27-599.6 49.187-838 146.577-171 69.846-189 156.415-291 259.708-106.19 107.533-367 130.837-367 130.837zM86343 0h1693s0 281.304-197 448.112c-213.61 180.873-599.6 49.351-838 147.067-171 70.079-189 156.938-291 260.576-106.19 107.893-367 131.275-367 131.275zM88036 0h1693s0 282.123-197 449.417c-213.61 181.4-599.6 49.495-838 147.495-171 70.284-189 157.395-291 261.335-106.19 108.207-367 131.658-367 131.658zM89729 0h1693s0 282.829-197 450.542c-213.61 181.854-599.6 49.619-838 147.865-171 70.459-189 157.789-291 261.989-106.19 108.478-367 131.987-367 131.987zM91422 0h1693s0 283.428-197 451.496c-213.61 182.239-599.6 49.724-838 148.178-171 70.608-189 158.123-291 262.543-106.19 108.707-367 132.267-367 132.267zM93115 0h1693s0 283.924-197 452.285c-213.61 182.558-599.6 49.811-838 148.437-171 70.732-189 158.4-291 263.003-106.19 108.897-367 132.498-367 132.498zM94808 0h1693s0 284.321-197 452.918c-213.61 182.813-599.6 49.88-838 148.644-171 70.831-189 158.621-291 263.371-106.19 109.049-367 132.683-367 132.683zM96501 0h1693s0 284.623-197 453.399c-213.61 183.008-599.6 49.934-838 148.803-171 70.906-189 158.79-291 263.651-106.19 109.165-367 132.824-367 132.824zM98194 0h1693s0 284.835-197 453.737c-213.61 183.143-599.6 49.971-838 148.913-171 70.959-189 158.908-291 263.847-106.19 109.247-367 132.923-367 132.923zM99887 0h1693s0 284.959-197 453.935c-213.61 183.224-599.6 49.993-838 148.979-171 70.989-189 158.977-291 263.962-106.19 109.294-367 132.981-367 132.981zM101580 0h1693s0 285-197 454c-213.61 183.25-599.6 50-838 149-171 71-189 159-291 264-106.19 109.31-367 133-367 133z" fill="#0692ff"/></svg>